<svg width="38" height="38" viewBox="0 0 38 38" fill="none" xmlns="http://www.w3.org/2000/svg">
<circle cx="19" cy="19" r="18.5" stroke="#8E8E8E"/>
<path fill-rule="evenodd" clip-rule="evenodd" d="M19 1.97917C9.59966 1.97917 1.97917 9.59966 1.97917 19C1.97917 28.4003 9.59966 36.0208 19 36.0208C28.4003 36.0208 36.0208 28.4003 36.0208 19C36.0208 9.59966 28.4003 1.97917 19 1.97917ZM25.3814 20.6314L19.8397 26.173C19.3759 26.6368 18.6241 26.6368 18.1603 26.173L12.6186 20.6314C12.1549 20.1676 12.1549 19.4157 12.6186 18.952C13.0824 18.4882 13.8343 18.4882 14.298 18.952L17.8125 22.4665V12.6667C17.8125 12.0108 18.3442 11.4792 19 11.4792C19.6558 11.4792 20.1875 12.0108 20.1875 12.6667V22.4665L23.702 18.952C24.1657 18.4882 24.9176 18.4882 25.3814 18.952C25.8451 19.4157 25.8451 20.1676 25.3814 20.6314Z" fill="#2EAF00"/>
</svg>
