<svg width="38" height="38" viewBox="0 0 38 38" fill="none" xmlns="http://www.w3.org/2000/svg">
<circle cx="19" cy="19" r="18.5" stroke="#8E8E8E"/>
<path fill-rule="evenodd" clip-rule="evenodd" d="M19 1.97917C9.59966 1.97917 1.97917 9.59965 1.97917 19C1.97917 28.4003 9.59966 36.0208 19 36.0208C28.4004 36.0208 36.0208 28.4003 36.0208 19C36.0208 9.59965 28.4004 1.97917 19 1.97917ZM25.3814 17.3686L19.8397 11.827C19.3759 11.3632 18.6241 11.3632 18.1603 11.827L12.6186 17.3686C12.1549 17.8324 12.1549 18.5843 12.6186 19.048C13.0824 19.5118 13.8343 19.5118 14.298 19.048L17.8125 15.5335V25.3333C17.8125 25.9892 18.3442 26.5208 19 26.5208C19.6558 26.5208 20.1875 25.9892 20.1875 25.3333V15.5335L23.702 19.048C24.1657 19.5118 24.9176 19.5118 25.3814 19.048C25.8451 18.5843 25.8451 17.8324 25.3814 17.3686Z" fill="#D80000"/>
</svg>
