<svg width="85" height="85" viewBox="0 0 85 85" fill="none" xmlns="http://www.w3.org/2000/svg">
<g clip-path="url(#clip0_610_45)">
<path d="M42.4794 84.6084C65.6825 84.6084 84.4924 65.7985 84.4924 42.5954C84.4924 19.3923 65.6825 0.582397 42.4794 0.582397C19.2762 0.582397 0.46637 19.3923 0.46637 42.5954C0.46637 65.7985 19.2762 84.6084 42.4794 84.6084Z" fill="#E1E2FF"/>
<path fill-rule="evenodd" clip-rule="evenodd" d="M39.2014 74.1051C36.568 72.0166 35.2967 69.9281 35.2967 67.6579C35.2059 65.6602 36.0232 63.6624 37.3853 62.1187L67.1697 32.3343C69.2582 34.0596 70.4387 36.0573 70.8019 38.3275C71.256 40.5068 70.5295 42.777 68.895 44.3207L39.1106 74.0143L39.2014 74.1051ZM28.5771 63.4808C25.9437 61.3923 24.6724 59.3037 24.6724 57.0336C24.5816 55.0358 25.3989 53.0381 26.7609 51.4944L56.5454 21.71C58.6339 23.4353 59.8144 25.433 60.1776 27.7032C60.5408 29.8825 59.9052 32.1527 58.2707 33.6964L28.5771 63.4808ZM17.9528 52.8565C15.3194 50.7679 14.0481 48.6794 14.0481 46.4092C13.9573 44.4115 14.7745 42.4138 16.1366 40.8701L45.9211 11.0856C48.0096 12.811 49.1901 14.8087 49.5533 17.0788C50.0073 19.2582 49.2809 21.5283 47.6464 23.0721L17.8619 52.8565H17.9528Z" fill="url(#paint0_linear_610_45)"/>
</g>
<defs>
<linearGradient id="paint0_linear_610_45" x1="31.9819" y1="32.0171" x2="56.4995" y2="56.6255" gradientUnits="userSpaceOnUse">
<stop stop-color="#7EB5FF"/>
<stop offset="1" stop-color="#1A38F8"/>
</linearGradient>
<clipPath id="clip0_610_45">
<rect width="84.026" height="84.026" fill="white" transform="translate(0.46637 0.582397)"/>
</clipPath>
</defs>
</svg>
