<svg xmlns="http://www.w3.org/2000/svg" xmlns:xlink="http://www.w3.org/1999/xlink" width="300" zoomAndPan="magnify" viewBox="0 0 224.87999 74.999997" height="100" preserveAspectRatio="xMidYMid meet" version="1.0"><defs><g/></defs><g fill="#000000" fill-opacity="1"><g transform="translate(0.070275, 53.555511)"><g><path d="M 11.640625 -15.546875 L 11.640625 0 L 2.8125 0 L 2.8125 -38.75 L 11.640625 -38.75 L 11.640625 -23.296875 L 24.140625 -23.296875 L 24.140625 -38.75 L 32.96875 -38.75 L 32.96875 0 L 24.140625 0 L 24.140625 -15.546875 Z M 11.640625 -15.546875 "/></g></g></g><g fill="#000000" fill-opacity="1"><g transform="translate(35.859177, 53.555511)"><g><path d="M 4.453125 -2.984375 C 2.203125 -5.441406 1.078125 -8.453125 1.078125 -12.015625 C 1.078125 -15.585938 2.203125 -18.609375 4.453125 -21.078125 C 6.710938 -23.554688 9.582031 -24.796875 13.0625 -24.796875 C 16.25 -24.796875 18.878906 -23.796875 20.953125 -21.796875 L 20.953125 -24.09375 L 29.265625 -24.09375 L 29.265625 0 L 21.046875 0 L 21.046875 -2.71875 L 20.953125 -2.71875 C 18.878906 -0.4375 16.25 0.703125 13.0625 0.703125 C 9.582031 0.703125 6.710938 -0.523438 4.453125 -2.984375 Z M 11.53125 -16.109375 C 10.445312 -15.046875 9.90625 -13.679688 9.90625 -12.015625 C 9.90625 -10.359375 10.421875 -9.003906 11.453125 -7.953125 C 12.492188 -6.910156 13.859375 -6.390625 15.546875 -6.390625 C 17.171875 -6.390625 18.507812 -6.921875 19.5625 -7.984375 C 20.613281 -9.046875 21.140625 -10.394531 21.140625 -12.03125 C 21.140625 -13.6875 20.597656 -15.046875 19.515625 -16.109375 C 18.429688 -17.171875 17.109375 -17.703125 15.546875 -17.703125 C 13.953125 -17.703125 12.613281 -17.171875 11.53125 -16.109375 Z M 11.53125 -16.109375 "/></g></g></g><g fill="#000000" fill-opacity="1"><g transform="translate(67.937675, 53.555511)"><g><path d="M 2.8125 0 L 2.8125 -24.09375 L 11.125 -24.09375 L 11.125 -20.625 L 11.21875 -20.625 C 11.28125 -20.75 11.378906 -20.90625 11.515625 -21.09375 C 11.660156 -21.28125 11.96875 -21.609375 12.4375 -22.078125 C 12.914062 -22.546875 13.421875 -22.96875 13.953125 -23.34375 C 14.484375 -23.71875 15.171875 -24.050781 16.015625 -24.34375 C 16.859375 -24.644531 17.71875 -24.796875 18.59375 -24.796875 C 19.507812 -24.796875 20.40625 -24.671875 21.28125 -24.421875 C 22.15625 -24.171875 22.796875 -23.921875 23.203125 -23.671875 L 23.859375 -23.296875 L 20.390625 -16.25 C 19.347656 -17.125 17.90625 -17.5625 16.0625 -17.5625 C 15.0625 -17.5625 14.203125 -17.34375 13.484375 -16.90625 C 12.765625 -16.46875 12.253906 -15.9375 11.953125 -15.3125 C 11.648438 -14.6875 11.4375 -14.15625 11.3125 -13.71875 C 11.1875 -13.28125 11.125 -12.9375 11.125 -12.6875 L 11.125 0 Z M 2.8125 0 "/></g></g></g><g fill="#000000" fill-opacity="1"><g transform="translate(91.327273, 53.555511)"><g><path d="M 15.640625 -17.984375 C 14.078125 -17.984375 12.726562 -17.40625 11.59375 -16.25 C 10.46875 -15.09375 9.90625 -13.703125 9.90625 -12.078125 C 9.90625 -10.410156 10.46875 -9 11.59375 -7.84375 C 12.726562 -6.6875 14.078125 -6.109375 15.640625 -6.109375 C 16.390625 -6.109375 17.097656 -6.203125 17.765625 -6.390625 C 18.441406 -6.578125 18.9375 -6.765625 19.25 -6.953125 L 19.6875 -7.234375 L 22.5 -1.453125 C 22.28125 -1.296875 21.972656 -1.097656 21.578125 -0.859375 C 21.191406 -0.628906 20.300781 -0.3125 18.90625 0.09375 C 17.507812 0.5 16.015625 0.703125 14.421875 0.703125 C 10.878906 0.703125 7.769531 -0.539062 5.09375 -3.03125 C 2.414062 -5.519531 1.078125 -8.503906 1.078125 -11.984375 C 1.078125 -15.484375 2.414062 -18.492188 5.09375 -21.015625 C 7.769531 -23.535156 10.878906 -24.796875 14.421875 -24.796875 C 16.015625 -24.796875 17.484375 -24.609375 18.828125 -24.234375 C 20.179688 -23.859375 21.140625 -23.484375 21.703125 -23.109375 L 22.5 -22.546875 L 19.6875 -16.859375 C 18.644531 -17.609375 17.296875 -17.984375 15.640625 -17.984375 Z M 15.640625 -17.984375 "/></g></g></g><g fill="#000000" fill-opacity="1"><g transform="translate(114.388096, 53.555511)"><g><path d="M 4.453125 -2.984375 C 2.203125 -5.441406 1.078125 -8.453125 1.078125 -12.015625 C 1.078125 -15.585938 2.203125 -18.609375 4.453125 -21.078125 C 6.710938 -23.554688 9.582031 -24.796875 13.0625 -24.796875 C 16.25 -24.796875 18.878906 -23.796875 20.953125 -21.796875 L 20.953125 -24.09375 L 29.265625 -24.09375 L 29.265625 0 L 21.046875 0 L 21.046875 -2.71875 L 20.953125 -2.71875 C 18.878906 -0.4375 16.25 0.703125 13.0625 0.703125 C 9.582031 0.703125 6.710938 -0.523438 4.453125 -2.984375 Z M 11.53125 -16.109375 C 10.445312 -15.046875 9.90625 -13.679688 9.90625 -12.015625 C 9.90625 -10.359375 10.421875 -9.003906 11.453125 -7.953125 C 12.492188 -6.910156 13.859375 -6.390625 15.546875 -6.390625 C 17.171875 -6.390625 18.507812 -6.921875 19.5625 -7.984375 C 20.613281 -9.046875 21.140625 -10.394531 21.140625 -12.03125 C 21.140625 -13.6875 20.597656 -15.046875 19.515625 -16.109375 C 18.429688 -17.171875 17.109375 -17.703125 15.546875 -17.703125 C 13.953125 -17.703125 12.613281 -17.171875 11.53125 -16.109375 Z M 11.53125 -16.109375 "/></g></g></g><g fill="#000000" fill-opacity="1"><g transform="translate(146.466595, 53.555511)"><g><path d="M 2.8125 0 L 2.8125 -24.09375 L 11.125 -24.09375 L 11.125 -21.5625 L 11.21875 -21.5625 C 13.382812 -23.71875 15.6875 -24.796875 18.125 -24.796875 C 19.882812 -24.796875 21.53125 -24.4375 23.0625 -23.71875 C 24.59375 -23 25.75 -21.890625 26.53125 -20.390625 C 28.976562 -23.328125 31.640625 -24.796875 34.515625 -24.796875 C 37.085938 -24.796875 39.296875 -24.078125 41.140625 -22.640625 C 42.992188 -21.203125 43.921875 -18.945312 43.921875 -15.875 L 43.921875 0 L 35.609375 0 L 35.609375 -13.625 C 35.609375 -14.90625 35.253906 -15.972656 34.546875 -16.828125 C 33.835938 -17.691406 32.78125 -18.125 31.375 -18.125 C 30.15625 -18.125 29.222656 -17.753906 28.578125 -17.015625 C 27.941406 -16.285156 27.59375 -15.40625 27.53125 -14.375 L 27.53125 0 L 19.203125 0 L 19.203125 -13.625 C 19.203125 -14.90625 18.847656 -15.972656 18.140625 -16.828125 C 17.441406 -17.691406 16.390625 -18.125 14.984375 -18.125 C 13.703125 -18.125 12.738281 -17.722656 12.09375 -16.921875 C 11.445312 -16.128906 11.125 -15.1875 11.125 -14.09375 L 11.125 0 Z M 2.8125 0 "/></g></g></g><g fill="#000000" fill-opacity="1"><g transform="translate(192.729148, 53.555511)"><g><path d="M 4.453125 -2.984375 C 2.203125 -5.441406 1.078125 -8.453125 1.078125 -12.015625 C 1.078125 -15.585938 2.203125 -18.609375 4.453125 -21.078125 C 6.710938 -23.554688 9.582031 -24.796875 13.0625 -24.796875 C 16.25 -24.796875 18.878906 -23.796875 20.953125 -21.796875 L 20.953125 -24.09375 L 29.265625 -24.09375 L 29.265625 0 L 21.046875 0 L 21.046875 -2.71875 L 20.953125 -2.71875 C 18.878906 -0.4375 16.25 0.703125 13.0625 0.703125 C 9.582031 0.703125 6.710938 -0.523438 4.453125 -2.984375 Z M 11.53125 -16.109375 C 10.445312 -15.046875 9.90625 -13.679688 9.90625 -12.015625 C 9.90625 -10.359375 10.421875 -9.003906 11.453125 -7.953125 C 12.492188 -6.910156 13.859375 -6.390625 15.546875 -6.390625 C 17.171875 -6.390625 18.507812 -6.921875 19.5625 -7.984375 C 20.613281 -9.046875 21.140625 -10.394531 21.140625 -12.03125 C 21.140625 -13.6875 20.597656 -15.046875 19.515625 -16.109375 C 18.429688 -17.171875 17.109375 -17.703125 15.546875 -17.703125 C 13.953125 -17.703125 12.613281 -17.171875 11.53125 -16.109375 Z M 11.53125 -16.109375 "/></g></g></g></svg>