<svg width="29" height="29" viewBox="0 0 29 29" fill="none" xmlns="http://www.w3.org/2000/svg">
<path d="M23.375 24.1667H5.625C4.52043 24.1667 3.625 23.2712 3.625 22.1667V10.4583C3.625 9.35377 4.52043 8.45834 5.625 8.45834H23.375C24.4796 8.45834 25.375 9.35377 25.375 10.4583V22.1667C25.375 23.2712 24.4796 24.1667 23.375 24.1667Z" stroke="#888888" stroke-width="1.5"/>
<path d="M19.9375 16.9167C19.6038 16.9167 19.3333 16.6462 19.3333 16.3125C19.3333 15.9788 19.6038 15.7083 19.9375 15.7083C20.2712 15.7083 20.5417 15.9788 20.5417 16.3125C20.5417 16.6462 20.2712 16.9167 19.9375 16.9167Z" fill="#888888" stroke="#888888" stroke-width="1.5" stroke-linecap="round" stroke-linejoin="round"/>
<path d="M21.75 8.45833V6.22822C21.75 4.91416 20.5044 3.95717 19.2347 4.29575L5.10967 8.06242C4.23417 8.29589 3.625 9.08879 3.625 9.99489V10.875" stroke="#888888" stroke-width="1.5"/>
</svg>
